# xmcd
#
# Track frame offsets:
#	150
#	18090
#	41450
#	61802
#	79572
#	96625
#	114005
#	124362
#	140807
#	155457
#
# Disc length: 2331 seconds
#
# Revision: 1
# Processed by: cddbd v1.5.2PL0 Copyright (c) Steve Scherf et al.
# Submitted via: audiograbber 1.83.01
#
DISCID=7b09190a
DTITLE=Robert Earl Keen - Best of Robert Earl Keen
DYEAR=2004
DGENRE=Country
TTITLE0=Fourth of July
TTITLE1=Levelland
TTITLE2=Over the Waterfall
TTITLE3=Then Came lo Mein
TTITLE4=Undone
TTITLE5=Travelin' Light
TTITLE6=That Buckin' Song
TTITLE7=Down That Dusty Trail
TTITLE8=Feelin' Good Again
TTITLE9=New Life in Old Mexico
EXTD=
EXTT0=
EXTT1=
EXTT2=
EXTT3=
EXTT4=
EXTT5=
EXTT6=
EXTT7=
EXTT8=
EXTT9=
PLAYORDER=
